<svg width="192" height="192" viewBox="0 0 192 192" fill="none" xmlns="http://www.w3.org/2000/svg">
<path d="M0 96C0 42.9807 42.9807 0 96 0C149.019 0 192 42.9807 192 96C192 149.019 149.019 192 96 192C42.9807 192 0 149.019 0 96Z" fill="#F0F081"/>
<path fill-rule="evenodd" clip-rule="evenodd" d="M44.5924 100.351C44.7359 99.6557 47.0627 99.7404 47.6453 99.7676C48.2897 99.798 49.8752 99.7674 50.0651 100.53L49.617 115.416V115.417C53.4739 109.522 63.2437 109.728 66.1324 116.376C70.924 127.404 59.7554 140.037 49.5341 131.7C49.5375 131.717 49.7438 132.742 49.47 133.51C49.3223 133.922 44.3674 133.82 44.2845 133.085C43.3967 125.185 44.5907 100.385 44.5924 100.351ZM59.7953 117.109C57.4839 114.58 53.9299 115.483 51.7271 117.709C48.2356 121.235 48.9933 129.802 54.7515 130.066C61.564 130.377 63.7763 121.465 59.7934 117.109H59.7953Z" fill="#252626"/>
<path fill-rule="evenodd" clip-rule="evenodd" d="M112.232 97.5596C117.559 97.2385 119.279 100.013 119.371 105.073C119.486 111.28 110.72 114.415 110.715 114.603C110.689 115.398 110.651 115.751 110.697 116.213C112.839 114.285 117.966 109.976 122.624 111.691H122.619C128.429 113.834 124.474 122.568 125.209 127.294C125.817 131.209 130.441 127.135 131.003 125.464C131.267 124.681 131.124 122.468 131.262 121.415C132.143 114.682 138.113 109.095 145.148 110.514C148.464 111.182 149.805 114.002 149.583 117.579C149.456 119.64 145.784 120.981 144.549 119.894C143.632 119.089 144.873 117.927 144.924 116.659C144.98 115.274 143.811 113.775 141.283 114.692C136.223 116.531 135.336 125.253 139.55 128.412C142.841 130.877 148.36 129.085 151.402 126.904C152.252 126.295 154.541 123.51 155.465 122.991C156.181 122.588 157.592 122.82 157.988 123.672C158.908 126.747 152.429 131.572 150.006 132.686C144.339 135.289 136.048 135.137 132.524 129.305L132.192 129.403C130.16 133.042 122.938 136.164 120.618 131.256C119.397 128.671 120.229 125.017 120.263 122.206C120.301 119.036 120.918 114.42 116.117 116.298C112.943 117.539 110.822 123.503 110.688 126.662C110.633 127.929 110.676 132.093 110.665 133.025C110.65 134.26 105.668 134.689 105.553 133.199C105.512 132.656 105.728 128.858 105.381 129.669C103.792 133.384 98.1248 135.571 94.1419 133.195C92.5102 132.222 91.6361 130.526 91.494 128.666C87.1043 132.376 81.6315 135.501 75.666 133.985C64.3618 131.112 65.9298 113.093 77.0108 110.792C83.3974 109.466 89.6102 114.499 85.8986 120.985C83.5491 125.092 78.0395 124.8 73.8285 124.696C73.2574 124.681 73.1858 124.6 73.476 125.212C74.0041 126.328 74.5098 127.439 75.5561 128.19C81.2091 132.258 90.9838 123.951 91.1321 122.762L91.8578 115.639C91.6916 115.069 89.1717 115.398 87.5974 115.398C86.886 115.398 86.9847 110.855 88.0358 110.893L91.8926 110.947C91.8926 110.947 91.8082 105.267 91.8926 103.284C91.9325 102.343 97.0672 102.212 97.1168 103.543L96.9923 110.945H102.171C102.98 110.945 102.95 115.774 102.171 115.734H96.8329C96.8569 119.046 96.4246 122.876 96.8329 126.188C97.0338 127.821 98.3689 128.848 100.136 128.642C101.43 128.492 104.872 125.627 105.012 123.328C105.443 116.218 102.932 98.1189 112.232 97.5596ZM80.1848 114.451C76.1493 113.981 74.4298 117.178 73.5638 120.524H78.7429C80.2056 120.487 81.3032 119.808 81.6844 119.481C83.4261 117.98 82.2152 114.687 80.1848 114.451ZM114.953 103.727C114.835 102.795 114.294 101.65 113.173 101.848C110.297 102.835 110.67 107.501 110.718 110.25C111.539 110.205 115.192 106.635 114.968 103.858L114.954 103.727H114.953Z" fill="#252626"/>
<path fill-rule="evenodd" clip-rule="evenodd" d="M120.076 58.4512C120.1 57.4575 125.394 57.1636 125.488 58.5041C125.587 59.9213 125.555 63.863 125.516 65.547C125.383 71.1997 124.472 79.0621 125.034 84.5328C125.161 85.7726 125.575 86.7329 126.508 87.3416C127.039 87.6883 127.723 87.7235 128.288 87.4376C129.43 86.8593 130.42 85.6065 130.731 84.4976C131.245 82.6646 130.589 70.4154 130.736 69.471C130.798 68.7776 135.977 68.5043 136.23 69.645L136.199 84.5201C136.911 89.1566 141.128 88.2319 143.264 85.2408C145.763 81.7417 144.524 72.7383 144.723 69.8767C144.813 68.5922 150.07 68.5443 150.041 69.594C149.982 71.8083 150.207 78.5725 150.214 79.2618L150.29 87.8066C150.658 87.8763 154.112 85.188 156.024 83.0201C157.348 81.5198 158.122 79.2061 158.333 79.107C158.956 78.813 160.626 78.9759 161.047 79.6245C161.786 80.7636 160.588 83.2961 159.932 84.381C157.816 87.8849 153.582 89.9847 150.035 91.7437C149.684 97.5931 147.504 104.441 141.918 107.197C132.681 111.754 128.527 102.49 135.864 96.345C138.276 94.3255 140.965 93.8044 143.336 92.1765C144.822 91.1555 144.849 90.753 144.789 88.9252C144.372 89.4046 143.879 89.8391 143.342 90.2673C139.484 93.331 134.315 93.7706 131.838 88.9968L131.722 88.7655C128.95 92.8939 121.754 94.4357 120.249 88.446C117.696 92.7247 112.091 93.6706 107.789 91.5903C106.384 90.9113 105.512 89.9558 104.553 88.7576C103.24 90.4767 101.924 92.1588 99.6004 92.421C89.6311 93.5474 93.1036 82.6299 92.5294 77.025C91.9503 71.3692 85.0325 74.7195 84.1886 79.059C83.9126 80.481 83.8281 83.726 83.7548 85.3413C83.7116 86.284 83.9286 90.0436 83.7675 91.2866C83.7387 91.5136 83.5983 91.7116 83.3925 91.8138C82.9922 92.0119 82.4946 91.993 82.0928 92.0073C81.5951 92.025 79.1177 92.033 78.7444 91.9515C78.4381 91.8843 77.8624 91.678 77.8624 91.0788V86.8496L77.8658 86.8447C72.2527 94.0266 56.7117 94.963 54.5153 84.2966C53.4721 79.2318 55.2522 73.3871 59.7135 70.5C65.4925 66.758 75.7155 68.931 73.6451 77.4326C72.2478 83.1749 64.9838 83.4577 60.1778 83.175C59.2881 83.7469 61.8842 86.3811 62.4173 86.757C66.3634 89.5305 72.2189 86.6372 75.3979 83.8188C78.3616 81.1921 78.6968 80.1996 78.8276 76.2405C78.8946 74.2258 78.534 72.1551 78.5213 70.2427C78.5213 70.051 78.6378 69.8784 78.8149 69.8017C80.0895 69.2553 83.2986 68.7936 83.9111 69.9855C84.0897 70.3324 83.9813 72.2908 84.3161 72.0018C84.6512 71.7126 84.8219 71.2206 85.4329 70.7253C88.2688 68.4262 93.4351 67.9387 95.949 70.5701C99.723 74.5197 97.123 81.5948 97.9811 86.0925C98.3209 87.8707 100.426 87.5655 101.529 86.6883C101.712 86.543 102.251 86.1259 102.663 84.819C102.867 84.1736 102.715 82.5612 102.719 81.8118C102.754 74.3344 107.994 67.1749 116.514 68.9643C117.555 69.1826 120.015 71.3704 120.028 71.382L120.076 58.4512ZM144.049 96.3386C144.565 95.1357 144.395 95.3257 143.352 95.8241C141.727 96.6022 138.969 98.5525 138.638 98.8758V98.8743C137.314 100.167 136.128 101.804 137.431 103.137C137.834 103.549 138.435 103.687 138.978 103.49C142.099 102.356 142.803 99.2416 144.049 96.3386ZM115.403 87.3337C122.145 84.6624 121.888 71.8931 113.52 73.1568C105.695 74.3393 107.11 90.6186 115.403 87.3337ZM67.0736 72.9941C65.1244 72.2288 63.124 73.1649 61.8495 74.7116C60.9213 75.838 60.2992 77.3174 59.859 78.7042H65.5166C69.0113 78.7042 70.4661 74.3284 67.0736 72.9941Z" fill="#252626"/>
<path fill-rule="evenodd" clip-rule="evenodd" d="M32.052 57.8073C32.7906 57.6444 34.1831 57.6238 34.8386 57.798C35.3314 57.929 35.668 58.127 35.6569 58.5007L35.6415 59.1393C35.5697 62.6992 35.5711 71.3526 35.4799 72.1582L38.0813 70.377C42.7133 67.5585 49.7317 68.8193 52.0796 73.9672C56.1023 82.7835 51.901 93.6288 40.5026 92.4273C39.0113 92.2708 36.2615 90.6396 35.4799 89.3006L35.5594 91.4688C34.9052 92.4944 30.9704 91.9992 30.72 91.3601L30.795 58.4208C30.7744 58.1684 31.4587 57.9367 32.052 57.8073ZM48.3233 79.3961C47.7728 73.8599 42.214 71.7031 38.1259 75.6078C34.6885 78.8896 34.6614 87.1453 40.1006 87.8947C45.5398 88.6441 48.8576 84.7805 48.3233 79.3961Z" fill="#252626"/>
</svg>
