<svg width="512" height="512" viewBox="0 0 512 512" fill="none" xmlns="http://www.w3.org/2000/svg">
<path d="M0 256C0 114.615 114.615 0 256 0C397.385 0 512 114.615 512 256C512 397.385 397.385 512 256 512C114.615 512 0 397.385 0 256Z" fill="#F0F081"/>
<path fill-rule="evenodd" clip-rule="evenodd" d="M118.913 267.602C119.296 265.749 125.501 265.974 127.054 266.047C128.772 266.128 133.001 266.047 133.507 268.079L132.312 307.776V307.78C142.597 292.058 168.65 292.607 176.353 310.336C189.131 339.743 159.348 373.432 132.091 351.201C132.1 351.245 132.65 353.978 131.92 356.028C131.526 357.127 118.313 356.853 118.092 354.894C115.725 333.826 118.909 267.694 118.913 267.602ZM159.454 312.292C153.29 305.547 143.813 307.955 137.939 313.89C128.628 323.293 130.649 346.139 146.004 346.842C164.171 347.673 170.07 323.906 159.449 312.292H159.454Z" fill="#252626"/>
<path fill-rule="evenodd" clip-rule="evenodd" d="M299.284 260.159C313.491 259.303 318.076 266.702 318.323 280.196C318.629 296.748 295.255 305.107 295.239 305.607C295.171 307.728 295.069 308.67 295.192 309.902C300.904 304.759 314.575 293.268 326.996 297.844H326.983C342.478 303.557 331.93 326.847 333.891 339.45C335.512 349.892 347.843 339.027 349.34 334.571C350.046 332.483 349.663 326.582 350.033 323.774C352.381 305.82 368.302 290.921 387.06 294.704C395.903 296.485 399.48 304.005 398.889 313.545C398.548 319.041 388.757 322.615 385.465 319.718C383.02 317.571 386.329 314.473 386.465 311.09C386.614 307.396 383.496 303.4 376.754 305.846C363.262 310.75 360.897 334.008 372.134 342.432C380.909 349.006 395.627 344.225 403.738 338.41C406.005 336.786 412.109 329.36 414.572 327.975C416.482 326.901 420.246 327.52 421.301 329.791C423.755 337.993 406.478 350.859 400.017 353.829C384.904 360.77 362.794 360.365 353.398 344.814L352.513 345.074C347.094 354.779 327.834 363.105 321.649 350.016C318.391 343.122 320.612 333.377 320.701 325.883C320.803 317.43 322.449 305.121 309.646 310.127C301.182 313.437 295.524 329.342 295.167 337.766C295.022 341.145 295.137 352.249 295.107 354.733C295.067 358.026 281.782 359.172 281.475 355.197C281.365 353.749 281.942 343.62 281.015 345.785C276.778 355.691 261.666 361.523 251.045 355.188C246.694 352.593 244.363 348.068 243.984 343.109C232.278 353.002 217.684 361.337 201.776 357.293C171.631 349.632 175.813 301.58 205.362 295.445C222.393 291.909 238.961 305.33 229.063 322.628C222.798 333.578 208.105 332.799 196.876 332.522C195.353 332.484 195.162 332.266 195.936 333.898C197.344 336.876 198.693 339.837 201.483 341.84C216.558 352.687 242.624 330.536 243.019 327.366L244.954 308.372C244.511 306.851 237.791 307.729 233.593 307.729C231.696 307.729 231.959 295.612 234.762 295.714L245.047 295.859C245.047 295.859 244.822 280.713 245.047 275.425C245.153 272.915 258.846 272.566 258.978 276.115L258.646 295.854H272.457C274.613 295.854 274.533 308.729 272.457 308.623H258.221C258.285 317.455 257.132 327.668 258.221 336.501C258.757 340.855 262.317 343.595 267.03 343.045C270.48 342.644 279.658 335.006 280.033 328.875C281.181 309.915 274.486 261.65 299.284 260.159ZM213.826 305.202C203.065 303.95 198.48 312.475 196.17 321.397H209.981C213.882 321.299 216.809 319.488 217.825 318.615C222.47 314.614 219.241 305.833 213.826 305.202ZM306.541 276.605C306.227 274.121 304.784 271.066 301.794 271.594C294.125 274.227 295.12 286.668 295.248 294.001C297.438 293.879 307.178 284.361 306.582 276.956L306.545 276.605H306.541Z" fill="#252626"/>
<path fill-rule="evenodd" clip-rule="evenodd" d="M320.203 155.87C320.267 153.22 334.384 152.436 334.635 156.011C334.899 159.79 334.814 170.301 334.708 174.792C334.355 189.866 331.926 210.832 333.423 225.421C333.763 228.727 334.865 231.288 337.354 232.911C338.77 233.835 340.594 233.929 342.1 233.167C345.146 231.625 347.787 228.284 348.617 225.327C349.986 220.439 348.238 187.774 348.629 185.256C348.795 183.407 362.606 182.678 363.279 185.72L363.198 225.387C365.095 237.751 376.342 235.285 382.037 227.309C388.702 217.978 385.397 193.969 385.929 186.338C386.168 182.913 400.186 182.785 400.11 185.584C399.953 191.489 400.553 209.527 400.57 211.365L400.774 234.151C401.754 234.337 410.966 227.168 416.065 221.387C419.595 217.386 421.659 211.216 422.22 210.952C423.883 210.168 428.336 210.603 429.459 212.332C431.429 215.37 428.234 222.123 426.486 225.016C420.842 234.36 409.553 239.959 400.093 244.65C399.157 260.248 393.343 278.509 378.447 285.859C353.815 298.01 342.739 273.306 362.305 256.92C368.736 251.535 375.907 250.145 382.228 245.804C386.192 243.081 386.265 242.008 386.103 237.134C384.993 238.412 383.678 239.571 382.245 240.713C371.957 248.883 358.175 250.055 351.567 237.325L351.258 236.708C343.866 247.717 324.678 251.829 320.663 235.856C313.857 247.266 298.91 249.788 287.438 244.241C283.691 242.43 281.364 239.882 278.808 236.687C275.307 241.271 271.798 245.757 265.601 246.456C239.016 249.46 248.276 220.347 246.745 205.4C245.201 190.318 226.753 199.252 224.503 210.824C223.767 214.616 223.542 223.269 223.346 227.577C223.231 230.091 223.81 240.116 223.38 243.431C223.303 244.036 222.929 244.564 222.38 244.837C221.313 245.365 219.986 245.315 218.914 245.353C217.587 245.4 210.981 245.421 209.985 245.204C209.168 245.025 207.633 244.475 207.633 242.877V231.599L207.642 231.586C192.674 250.738 151.231 253.235 145.374 224.791C142.592 211.285 147.339 195.699 159.236 188C174.647 178.021 201.908 183.816 196.387 206.487C192.661 221.8 173.29 222.554 160.474 221.8C158.102 223.325 165.024 230.35 166.446 231.352C176.969 238.748 192.584 231.033 201.061 223.517C208.964 216.512 209.858 213.866 210.207 203.308C210.386 197.935 209.424 192.414 209.39 187.314C209.39 186.803 209.701 186.342 210.173 186.138C213.572 184.681 222.13 183.45 223.763 186.628C224.239 187.553 223.95 192.775 224.843 192.005C225.736 191.234 226.192 189.922 227.821 188.601C235.384 182.47 249.16 181.17 255.864 188.187C265.928 198.719 258.995 217.586 261.283 229.58C262.189 234.322 267.804 233.508 270.743 231.169C271.232 230.781 272.67 229.669 273.767 226.184C274.312 224.463 273.907 220.163 273.916 218.165C274.01 198.225 287.983 179.133 310.705 183.905C313.48 184.487 320.04 190.321 320.075 190.352L320.203 155.87ZM384.13 256.903C385.508 253.695 385.053 254.202 382.271 255.531C377.938 257.606 370.585 262.807 369.702 263.669V263.665C366.172 267.112 363.007 271.479 366.482 275.032C367.558 276.131 369.161 276.498 370.607 275.974C378.931 272.949 380.808 264.644 384.13 256.903ZM307.74 232.89C325.72 225.766 325.035 191.715 302.721 195.085C281.853 198.238 285.626 241.65 307.74 232.89ZM178.863 194.651C173.665 192.61 168.331 195.106 164.932 199.231C162.457 202.235 160.798 206.18 159.624 209.878H174.711C184.03 209.878 187.91 198.209 178.863 194.651Z" fill="#252626"/>
<path fill-rule="evenodd" clip-rule="evenodd" d="M85.472 154.153C87.4415 153.718 91.1549 153.664 92.903 154.128C94.217 154.477 95.1146 155.005 95.085 156.002L95.044 157.705C94.8526 167.198 94.8562 190.274 94.613 192.422L101.55 187.672C113.902 180.156 132.618 183.518 138.879 197.246C149.606 220.756 138.403 249.677 108.007 246.473C104.03 246.055 96.6974 241.706 94.613 238.135L94.825 243.917C93.0806 246.652 82.5878 245.331 81.92 243.627L82.12 155.789C82.0652 155.116 83.8899 154.498 85.472 154.153ZM128.862 211.723C127.394 196.96 112.571 191.208 101.669 201.621C92.5027 210.372 92.4305 232.388 106.935 234.386C121.44 236.384 130.287 226.081 128.862 211.723Z" fill="#252626"/>
</svg>
