<svg width="180" height="180" viewBox="0 0 180 180" fill="none" xmlns="http://www.w3.org/2000/svg">
<path d="M0 90C0 40.2944 40.2944 0 90 0C139.706 0 180 40.2944 180 90C180 139.706 139.706 180 90 180C40.2944 180 0 139.706 0 90Z" fill="#F0F081"/>
<path fill-rule="evenodd" clip-rule="evenodd" d="M41.8054 94.0788C41.9399 93.4273 44.1213 93.5066 44.6674 93.5321C45.2716 93.5607 46.758 93.532 46.9361 94.2465L46.5159 108.202V108.204C50.1318 102.677 59.291 102.87 61.9991 109.102C66.4913 119.441 56.0207 131.285 46.4382 123.469C46.4414 123.485 46.6348 124.445 46.3781 125.166C46.2396 125.552 41.5945 125.456 41.5167 124.767C40.6844 117.361 41.8038 94.1112 41.8054 94.0788ZM56.058 109.79C53.8912 107.419 50.5593 108.265 48.4942 110.352C45.2209 113.658 45.9312 121.689 51.3295 121.937C57.7162 122.229 59.7903 113.873 56.0563 109.79H56.058Z" fill="#252626"/>
<path fill-rule="evenodd" clip-rule="evenodd" d="M105.217 91.4621C110.212 91.1611 111.824 93.7626 111.91 98.5064C112.018 104.325 103.8 107.264 103.795 107.44C103.771 108.186 103.735 108.517 103.778 108.95C105.787 107.142 110.593 103.102 114.96 104.711H114.955C120.403 106.719 116.694 114.907 117.384 119.338C117.953 123.009 122.289 119.189 122.815 117.623C123.063 116.889 122.929 114.814 123.058 113.827C123.884 107.515 129.481 102.277 136.076 103.607C139.185 104.233 140.442 106.877 140.234 110.231C140.115 112.163 136.672 113.419 135.515 112.401C134.655 111.646 135.819 110.557 135.867 109.368C135.919 108.069 134.823 106.664 132.453 107.524C127.709 109.248 126.878 117.425 130.828 120.386C133.913 122.697 139.087 121.017 141.939 118.972C142.736 118.401 144.882 115.79 145.748 115.304C146.419 114.926 147.743 115.144 148.114 115.942C148.976 118.826 142.902 123.349 140.631 124.393C135.318 126.833 127.545 126.691 124.241 121.224L123.93 121.315C122.025 124.727 115.254 127.654 113.08 123.052C111.934 120.629 112.715 117.203 112.746 114.568C112.782 111.597 113.361 107.269 108.86 109.029C105.884 110.193 103.895 115.784 103.77 118.746C103.719 119.934 103.759 123.837 103.749 124.711C103.735 125.868 99.0639 126.271 98.9561 124.874C98.9172 124.365 99.1203 120.804 98.7943 121.565C97.3049 125.048 91.992 127.098 88.258 124.871C86.7283 123.958 85.9088 122.368 85.7756 120.624C81.6603 124.102 76.5295 127.032 70.9369 125.611C60.3392 122.917 61.8092 106.024 72.1976 103.867C78.185 102.624 84.0096 107.342 80.53 113.424C78.3273 117.273 73.162 117 69.2142 116.902C68.6789 116.889 68.6117 116.812 68.8838 117.386C69.3788 118.433 69.8529 119.474 70.8339 120.178C76.1335 123.991 85.2973 116.204 85.4364 115.09L86.1166 108.412C85.9609 107.877 83.5985 108.186 82.1225 108.186C81.4556 108.186 81.5481 103.926 82.5335 103.962L86.1493 104.013C86.1493 104.013 86.0702 98.688 86.1493 96.8291C86.1867 95.9468 91.0005 95.8239 91.047 97.0717L90.9302 104.011H95.7857C96.5437 104.011 96.5154 108.538 95.7857 108.5H90.7808C90.8033 111.605 90.3981 115.196 90.7808 118.301C90.9692 119.832 92.2208 120.795 93.8777 120.602C95.0905 120.461 98.3174 117.775 98.4491 115.62C98.8528 108.954 96.4991 91.9865 105.217 91.4621ZM75.1732 107.298C71.39 106.857 69.778 109.854 68.966 112.991H73.8214C75.1927 112.957 76.2217 112.32 76.5791 112.013C78.212 110.606 77.0768 107.519 75.1732 107.298ZM107.768 97.2439C107.658 96.3706 107.151 95.2965 106.099 95.4822C103.403 96.408 103.753 100.782 103.798 103.36C104.568 103.317 107.992 99.9706 107.783 97.3673L107.77 97.2439H107.768Z" fill="#252626"/>
<path fill-rule="evenodd" clip-rule="evenodd" d="M112.571 54.798C112.594 53.8664 117.557 53.5909 117.645 54.8476C117.738 56.1763 117.708 59.8715 117.671 61.4503C117.547 66.7498 116.693 74.1208 117.219 79.2495C117.339 80.4118 117.726 81.3121 118.601 81.8827C119.099 82.2078 119.74 82.2408 120.27 81.9727C121.34 81.4306 122.269 80.2561 122.561 79.2165C123.042 77.4981 122.427 66.0144 122.565 65.129C122.623 64.479 127.479 64.2228 127.715 65.2922L127.687 79.2376C128.354 83.5843 132.308 82.7174 134.31 79.9133C136.653 76.6329 135.491 68.1922 135.678 65.5094C135.762 64.3052 140.69 64.2603 140.664 65.2443C140.608 67.3203 140.819 73.6617 140.825 74.308L140.897 82.3187C141.242 82.3841 144.48 79.8637 146.273 77.8313C147.514 76.4248 148.239 74.2557 148.437 74.1628C149.021 73.8872 150.587 74.04 150.982 74.6479C151.674 75.7159 150.551 78.0901 149.936 79.1072C147.952 82.3921 143.983 84.3607 140.658 86.0097C140.329 91.4936 138.285 97.9134 133.048 100.497C124.388 104.769 120.494 96.0842 127.373 90.3234C129.634 88.4302 132.155 87.9416 134.377 86.4154C135.771 85.4583 135.796 85.0809 135.739 83.3674C135.349 83.8168 134.887 84.2242 134.383 84.6256C130.766 87.4978 125.921 87.9099 123.598 83.4345L123.489 83.2176C120.89 87.0881 114.145 88.5335 112.733 82.9181C110.34 86.9294 105.085 87.8162 101.052 85.8659C99.7351 85.2293 98.9171 84.3335 98.0184 83.2102C96.7877 84.8219 95.5539 86.3989 93.3754 86.6447C84.0292 87.7007 87.2846 77.4656 86.7463 72.2109C86.2034 66.9086 79.718 70.0496 78.9268 74.1178C78.6681 75.451 78.5889 78.4931 78.5201 80.0075C78.4796 80.8912 78.683 84.4158 78.532 85.5812C78.505 85.794 78.3734 85.9796 78.1805 86.0755C77.8052 86.2612 77.3387 86.2434 76.962 86.2569C76.4954 86.2734 74.1729 86.2809 73.8229 86.2045C73.5357 86.1415 72.996 85.9481 72.996 85.3864V81.4215L72.9991 81.4169C67.7369 88.15 53.1672 89.0279 51.108 79.0281C50.1301 74.2798 51.7989 68.8004 55.9814 66.0937C61.3992 62.5857 70.9833 64.6228 69.0423 72.5931C67.7323 77.9765 60.9223 78.2416 56.4166 77.9765C55.5826 78.5128 58.0164 80.9823 58.5162 81.3347C62.2157 83.9349 67.7052 81.2224 70.6855 78.5802C73.464 76.1176 73.7782 75.1872 73.9009 71.4754C73.9637 69.5867 73.6257 67.6454 73.6137 65.8525C73.6137 65.6728 73.7229 65.511 73.8889 65.4391C75.0839 64.9268 78.0925 64.494 78.6667 65.6114C78.8341 65.9366 78.7324 67.7726 79.0464 67.5017C79.3605 67.2306 79.5206 66.7694 80.0933 66.305C82.752 64.1496 87.5954 63.6925 89.9522 66.1595C93.4903 69.8622 91.0528 76.4952 91.8573 80.7117C92.1759 82.3787 94.1497 82.0927 95.1831 81.2703C95.3551 81.1341 95.8605 80.743 96.2462 79.5178C96.4377 78.9127 96.2955 77.4011 96.2986 76.6986C96.3315 69.6885 101.244 62.9765 109.232 64.6541C110.208 64.8587 112.514 66.9097 112.526 66.9206L112.571 54.798ZM135.046 90.3174C135.53 89.1898 135.37 89.3678 134.392 89.8351C132.869 90.5646 130.284 92.393 129.973 92.6961V92.6947C128.732 93.9064 127.62 95.4417 128.841 96.6909C129.22 97.0774 129.783 97.2063 130.292 97.0221C133.218 95.9586 133.878 93.039 135.046 90.3174ZM108.19 81.8754C114.511 79.371 114.27 67.3997 106.425 68.5845C99.089 69.6931 100.415 84.9549 108.19 81.8754ZM62.8815 68.432C61.0542 67.7145 59.1788 68.5921 57.9839 70.0421C57.1137 71.0981 56.5305 72.4851 56.1178 73.7852H61.4218C64.6981 73.7852 66.0619 69.6829 62.8815 68.432Z" fill="#252626"/>
<path fill-rule="evenodd" clip-rule="evenodd" d="M30.0488 54.1944C30.7411 54.0416 32.0466 54.0223 32.6612 54.1856C33.1232 54.3084 33.4387 54.494 33.4283 54.8444L33.4139 55.4431C33.3466 58.7805 33.3479 66.8931 33.2624 67.6483L35.7012 65.9784C40.0438 63.3361 46.6234 64.5181 48.8247 69.3443C52.5959 77.6096 48.6572 87.777 37.9712 86.6506C36.5731 86.5038 33.9952 84.9746 33.2624 83.7193L33.3369 85.752C32.7236 86.7135 29.0348 86.2493 28.8 85.6501L28.8703 54.7695C28.851 54.5329 29.4925 54.3157 30.0488 54.1944ZM45.303 74.4338C44.787 69.2437 39.5756 67.2216 35.743 70.8824C32.5205 73.959 32.4951 81.6988 37.5943 82.4013C42.6936 83.1038 45.804 79.4817 45.303 74.4338Z" fill="#252626"/>
</svg>
