<svg width="16" height="16" viewBox="0 0 16 16" fill="none" xmlns="http://www.w3.org/2000/svg">
<path d="M0 8C0 3.58172 3.58172 0 8 0C12.4183 0 16 3.58172 16 8C16 12.4183 12.4183 16 8 16C3.58172 16 0 12.4183 0 8Z" fill="#F0F081"/>
<path fill-rule="evenodd" clip-rule="evenodd" d="M3.71603 8.36256C3.72799 8.30464 3.9219 8.3117 3.97044 8.31397C4.02414 8.3165 4.15627 8.31395 4.17209 8.37747L4.13475 9.618V9.61812C4.45616 9.12682 5.27031 9.14398 5.51103 9.698C5.91034 10.617 4.97961 11.6697 4.12784 10.975C4.12812 10.9764 4.14532 11.0618 4.1225 11.1259C4.11019 11.1602 3.69729 11.1517 3.69038 11.0904C3.61639 10.4321 3.71589 8.36544 3.71603 8.36256ZM4.98294 9.75912C4.79033 9.54835 4.49416 9.62359 4.31059 9.80906C4.01964 10.1029 4.08277 10.8168 4.56263 10.8388C5.13033 10.8648 5.31469 10.1221 4.98278 9.75912H4.98294Z" fill="#252626"/>
<path fill-rule="evenodd" clip-rule="evenodd" d="M9.35263 8.12997C9.79658 8.1032 9.93988 8.33445 9.94759 8.75612C9.95716 9.27337 9.22671 9.5346 9.22622 9.55022C9.22409 9.61651 9.2209 9.64595 9.22475 9.68443C9.40326 9.52372 9.83048 9.16464 10.2186 9.30762H10.2182C10.7025 9.48617 10.3728 10.214 10.4341 10.6078C10.4848 10.9341 10.8701 10.5946 10.9169 10.4553C10.9389 10.3901 10.927 10.2057 10.9385 10.1179C11.0119 9.55686 11.5094 9.09127 12.0956 9.2095C12.372 9.26515 12.4838 9.50017 12.4653 9.79828C12.4546 9.97003 12.1487 10.0817 12.0458 9.99118C11.9694 9.92408 12.0728 9.82727 12.077 9.72156C12.0817 9.60613 11.9842 9.48125 11.7736 9.55768C11.3519 9.71093 11.278 10.4378 11.6292 10.701C11.9034 10.9064 12.3633 10.757 12.6168 10.5753C12.6877 10.5246 12.8784 10.2925 12.9554 10.2492C13.0151 10.2157 13.1327 10.235 13.1657 10.306C13.2423 10.5623 12.7024 10.9643 12.5005 11.0572C12.0282 11.2741 11.3373 11.2614 11.0437 10.7754L11.016 10.7836C10.8467 11.0869 10.2448 11.347 10.0515 10.938C9.94971 10.7226 10.0191 10.418 10.0219 10.1838C10.0251 9.91969 10.0765 9.53503 9.67644 9.69147C9.41193 9.79492 9.23514 10.292 9.22397 10.5552C9.21945 10.6608 9.22302 11.0078 9.22209 11.0854C9.22085 11.1883 8.80568 11.2241 8.79609 11.0999C8.79264 11.0546 8.81069 10.7381 8.78172 10.8058C8.64933 11.1153 8.17707 11.2976 7.84516 11.0996C7.70918 11.0185 7.63634 10.8771 7.6245 10.7222C7.2587 11.0313 6.80262 11.2918 6.3055 11.1654C5.36348 10.926 5.49415 9.42438 6.41756 9.23265C6.94978 9.12215 7.46752 9.54155 7.15822 10.0821C6.96243 10.4243 6.50329 10.4 6.15238 10.3913C6.10479 10.3901 6.09882 10.3833 6.123 10.4343C6.167 10.5274 6.20915 10.6199 6.29634 10.6825C6.76743 11.0215 7.58199 10.3292 7.59434 10.2302L7.65481 9.63662C7.64097 9.5891 7.43097 9.61653 7.29978 9.61653C7.2405 9.61653 7.24872 9.23788 7.33631 9.24106L7.65772 9.24559C7.65772 9.24559 7.65068 8.77227 7.65772 8.60703C7.66104 8.52861 8.08894 8.51768 8.09306 8.62859L8.08269 9.24543H8.51428C8.58167 9.24543 8.57915 9.6478 8.51428 9.64447H8.06941C8.07141 9.92048 8.03538 10.2396 8.06941 10.5157C8.08615 10.6517 8.19741 10.7373 8.34469 10.7202C8.45248 10.7076 8.73933 10.4689 8.75103 10.2773C8.78691 9.68483 8.57769 8.17658 9.35263 8.12997ZM6.68206 9.53756C6.34578 9.49843 6.20249 9.76484 6.13031 10.0437H6.56191C6.6838 10.0406 6.77527 9.98401 6.80703 9.95672C6.95218 9.83169 6.85127 9.55727 6.68206 9.53756ZM9.57941 8.6439C9.56958 8.56627 9.5245 8.4708 9.43106 8.48731C9.1914 8.5696 9.2225 8.95838 9.2265 9.18753C9.29494 9.18371 9.59933 8.88628 9.58069 8.65487L9.57953 8.6439H9.57941Z" fill="#252626"/>
<path fill-rule="evenodd" clip-rule="evenodd" d="M10.0063 4.87093C10.0084 4.78812 10.4495 4.76363 10.4573 4.87534C10.4656 4.99345 10.4629 5.32191 10.4596 5.46225C10.4486 5.93331 10.3727 6.58851 10.4195 7.0444C10.4301 7.14772 10.4645 7.22774 10.5423 7.27847C10.5866 7.30736 10.6436 7.3103 10.6906 7.28647C10.7858 7.23828 10.8684 7.13388 10.8943 7.04147C10.9371 6.88872 10.8824 5.86795 10.8947 5.78925C10.8998 5.73146 11.3314 5.70869 11.3525 5.80375L11.3499 7.04334C11.4092 7.42972 11.7607 7.35265 11.9387 7.1034C12.1469 6.81181 12.0437 6.06152 12.0603 5.82306C12.0678 5.71602 12.5058 5.71203 12.5034 5.7995C12.4985 5.98403 12.5173 6.54771 12.5178 6.60515L12.5242 7.31722C12.5548 7.32303 12.8427 7.099 13.002 6.91834C13.1124 6.79332 13.1768 6.60051 13.1944 6.59225C13.2463 6.56775 13.3855 6.58133 13.4206 6.63537C13.4821 6.7303 13.3823 6.94134 13.3277 7.03175C13.1513 7.32374 12.7985 7.49873 12.5029 7.64531C12.4737 8.13276 12.292 8.70341 11.8265 8.93309C11.0567 9.31282 10.7106 8.54082 11.322 8.02875C11.523 7.86046 11.7471 7.81704 11.9446 7.68137C12.0685 7.59629 12.0708 7.56275 12.0657 7.41043C12.031 7.45038 11.9899 7.4866 11.9452 7.52228C11.6237 7.77758 11.193 7.81422 10.9865 7.4164L10.9768 7.39712C10.7458 7.74116 10.1462 7.86964 10.0207 7.3705C9.80804 7.72706 9.34093 7.80588 8.98244 7.63253C8.86534 7.57594 8.79263 7.49631 8.71275 7.39647C8.60335 7.53973 8.49368 7.6799 8.30003 7.70175C7.46926 7.79561 7.75863 6.88583 7.71078 6.41875C7.66252 5.94743 7.08604 6.22663 7.01572 6.58825C6.99272 6.70675 6.98568 6.97716 6.97956 7.11178C6.97597 7.19033 6.99405 7.50363 6.98063 7.60722C6.97822 7.62613 6.96652 7.64263 6.94938 7.65115C6.91602 7.66766 6.87455 7.66608 6.84106 7.66728C6.79959 7.66875 6.59315 7.66941 6.56203 7.66262C6.53651 7.65703 6.48853 7.63983 6.48853 7.5899V7.23747L6.48881 7.23706C6.02106 7.83555 4.72597 7.91359 4.54294 7.02472C4.45601 6.60265 4.60435 6.1156 4.97613 5.875C5.45771 5.56317 6.30962 5.74425 6.13709 6.45272C6.02065 6.93124 5.41531 6.95481 5.01481 6.93125C4.94067 6.97891 5.15701 7.19842 5.20144 7.22975C5.53028 7.46088 6.01824 7.21977 6.28316 6.9849C6.53013 6.76601 6.55807 6.6833 6.56897 6.35337C6.57455 6.18548 6.5445 6.01293 6.54344 5.85356C6.54344 5.83758 6.55315 5.8232 6.56791 5.81681C6.67412 5.77128 6.94155 5.7328 6.99259 5.83212C7.00748 5.86103 6.99844 6.02423 7.02634 6.00015C7.05427 5.97605 7.0685 5.93505 7.11941 5.89378C7.35574 5.70218 7.78626 5.66156 7.99575 5.88084C8.31025 6.20998 8.09358 6.79957 8.16509 7.17437C8.19341 7.32256 8.36887 7.29713 8.46072 7.22403C8.47601 7.21192 8.52094 7.17716 8.55522 7.06825C8.57224 7.01446 8.5596 6.8801 8.55988 6.81765C8.5628 6.19454 8.99947 5.59791 9.70953 5.74703C9.79623 5.76522 10.0013 5.94753 10.0023 5.9485L10.0063 4.87093ZM12.0041 8.02822C12.0471 7.92798 12.0329 7.9438 11.946 7.98534C11.8105 8.05018 11.5808 8.21271 11.5532 8.23965V8.23953C11.4429 8.34724 11.344 8.48371 11.4526 8.59475C11.4862 8.6291 11.5363 8.64056 11.5815 8.62418C11.8416 8.52965 11.9002 8.27014 12.0041 8.02822ZM9.61688 7.27781C10.1787 7.0552 10.1573 5.99109 9.46003 6.0964C8.80791 6.19495 8.92581 7.55155 9.61688 7.27781ZM5.58947 6.08284C5.42704 6.01907 5.26034 6.09708 5.15413 6.22597C5.07677 6.31983 5.02493 6.44312 4.98825 6.55868H5.45972C5.75094 6.55868 5.87217 6.19403 5.58947 6.08284Z" fill="#252626"/>
<path fill-rule="evenodd" clip-rule="evenodd" d="M2.671 4.81728C2.73255 4.8037 2.84859 4.80198 2.90322 4.8165C2.94428 4.82741 2.97233 4.84391 2.97141 4.87506L2.97013 4.92828C2.96414 5.22493 2.96426 5.94605 2.95666 6.01318L3.17344 5.86475C3.55945 5.62988 4.14431 5.73494 4.33997 6.16393C4.67519 6.89863 4.32509 7.8024 3.37522 7.70228C3.25094 7.68923 3.02179 7.5533 2.95666 7.44172L2.96328 7.6224C2.90877 7.70787 2.58087 7.6666 2.56 7.61334L2.56625 4.8684C2.56454 4.84737 2.62156 4.82806 2.671 4.81728ZM4.02694 6.61634C3.98107 6.15499 3.51783 5.97525 3.17716 6.30065C2.89071 6.57414 2.88845 7.26211 3.34172 7.32456C3.79498 7.38701 4.07146 7.06504 4.02694 6.61634Z" fill="#252626"/>
</svg>
