<svg width="32" height="32" viewBox="0 0 32 32" fill="none" xmlns="http://www.w3.org/2000/svg">
<path d="M0 16C0 7.16344 7.16344 0 16 0C24.8366 0 32 7.16344 32 16C32 24.8366 24.8366 32 16 32C7.16344 32 0 24.8366 0 16Z" fill="#F0F081"/>
<path fill-rule="evenodd" clip-rule="evenodd" d="M7.43206 16.7251C7.45599 16.6093 7.84379 16.6234 7.94088 16.6279C8.04828 16.633 8.31254 16.6279 8.34419 16.7549L8.2695 19.236V19.2362C8.91232 18.2536 10.5406 18.288 11.0221 19.396C11.8207 21.2339 9.95923 23.3395 8.25569 21.9501C8.25625 21.9528 8.29063 22.1236 8.245 22.2517C8.22038 22.3204 7.39457 22.3033 7.38075 22.1809C7.23278 20.8641 7.43179 16.7309 7.43206 16.7251ZM9.96588 19.5182C9.58065 19.0967 8.98832 19.2472 8.62119 19.6181C8.03927 20.2058 8.16555 21.6337 9.12525 21.6776C10.2607 21.7295 10.6294 20.2441 9.96556 19.5182H9.96588Z" fill="#252626"/>
<path fill-rule="evenodd" clip-rule="evenodd" d="M18.7053 16.2599C19.5932 16.2064 19.8798 16.6689 19.8952 17.5122C19.9143 18.5467 18.4534 19.0692 18.4524 19.1004C18.4482 19.233 18.4418 19.2919 18.4495 19.3689C18.8065 19.0474 19.661 18.3293 20.4373 18.6152H20.4364C21.4049 18.9723 20.7456 20.4279 20.8682 21.2156C20.9695 21.8683 21.7402 21.1892 21.8338 20.9107C21.8779 20.7802 21.854 20.4114 21.8771 20.2359C22.0238 19.1137 23.0189 18.1825 24.1913 18.419C24.744 18.5303 24.9675 19.0003 24.9306 19.5966C24.9093 19.9401 24.2973 20.1635 24.0916 19.9824C23.9387 19.8482 24.1456 19.6545 24.1541 19.4431C24.1634 19.2123 23.9685 18.9625 23.5471 19.1154C22.7039 19.4219 22.556 20.8755 23.2584 21.402C23.8068 21.8129 24.7267 21.5141 25.2336 21.1506C25.3753 21.0491 25.7568 20.585 25.9108 20.4984C26.0301 20.4313 26.2654 20.47 26.3313 20.6119C26.4847 21.1245 25.4049 21.9287 25.0011 22.1143C24.0565 22.5481 22.6746 22.5228 22.0874 21.5509L22.0321 21.5671C21.6934 22.1737 20.4896 22.694 20.1031 21.876C19.8994 21.4452 20.0382 20.8361 20.0438 20.3677C20.0502 19.8394 20.153 19.0701 19.3529 19.3829C18.8239 19.5898 18.4703 20.5839 18.4479 21.1104C18.4389 21.3215 18.446 22.0155 18.4442 22.1708C18.4417 22.3766 17.6114 22.4482 17.5922 22.1998C17.5853 22.1093 17.6214 21.4763 17.5634 21.6116C17.2987 22.2307 16.3541 22.5952 15.6903 22.1992C15.4184 22.0371 15.2727 21.7543 15.249 21.4443C14.5174 22.0626 13.6052 22.5835 12.611 22.3308C10.727 21.852 10.9883 18.8488 12.8351 18.4653C13.8996 18.2443 14.935 19.0831 14.3164 20.1642C13.9249 20.8486 13.0066 20.7999 12.3048 20.7826C12.2096 20.7802 12.1976 20.7666 12.246 20.8686C12.334 21.0547 12.4183 21.2398 12.5927 21.365C13.5349 22.0429 15.164 20.6585 15.1887 20.4604L15.3096 19.2732C15.2819 19.1782 14.8619 19.2331 14.5996 19.2331C14.481 19.2331 14.4974 18.4758 14.6726 18.4821L15.3154 18.4912C15.3154 18.4912 15.3014 17.5445 15.3154 17.2141C15.3221 17.0572 16.1779 17.0354 16.1861 17.2572L16.1654 18.4909H17.0286C17.1633 18.4909 17.1583 19.2956 17.0286 19.2889H16.1388C16.1428 19.841 16.0708 20.4793 16.1388 21.0313C16.1723 21.3034 16.3948 21.4747 16.6894 21.4403C16.905 21.4153 17.4787 20.9379 17.5021 20.5547C17.5738 19.3697 17.1554 16.3532 18.7053 16.2599ZM13.3641 19.0751C12.6916 18.9969 12.405 19.5297 12.2606 20.0873H13.1238C13.3676 20.0812 13.5505 19.968 13.6141 19.9134C13.9044 19.6634 13.7025 19.1145 13.3641 19.0751ZM19.1588 17.2878C19.1392 17.1325 19.049 16.9416 18.8621 16.9746C18.3828 17.1392 18.445 17.9168 18.453 18.3751C18.5899 18.3674 19.1987 17.7726 19.1614 17.3097L19.1591 17.2878H19.1588Z" fill="#252626"/>
<path fill-rule="evenodd" clip-rule="evenodd" d="M20.0127 9.74187C20.0167 9.57624 20.899 9.52727 20.9147 9.75068C20.9312 9.98689 20.9259 10.6438 20.9193 10.9245C20.8972 11.8666 20.7454 13.177 20.8389 14.0888C20.8602 14.2954 20.9291 14.4555 21.0846 14.5569C21.1731 14.6147 21.2871 14.6206 21.3813 14.5729C21.5716 14.4766 21.7367 14.2678 21.7886 14.0829C21.8741 13.7774 21.7649 11.7359 21.7893 11.5785C21.7997 11.4629 22.6629 11.4174 22.7049 11.6075L22.6999 14.0867C22.8184 14.8594 23.5213 14.7053 23.8773 14.2068C24.2939 13.6236 24.0873 12.123 24.1206 11.6461C24.1355 11.432 25.0116 11.4241 25.0069 11.599C24.997 11.9681 25.0346 13.0954 25.0356 13.2103L25.0484 14.6344C25.1096 14.6461 25.6854 14.198 26.0041 13.8367C26.2247 13.5866 26.3537 13.201 26.3888 13.1845C26.4927 13.1355 26.771 13.1627 26.8412 13.2707C26.9643 13.4606 26.7646 13.8827 26.6554 14.0635C26.3026 14.6475 25.597 14.9975 25.0058 15.2906C24.9473 16.2655 24.5839 17.4068 23.6529 17.8662C22.1134 18.6256 21.4212 17.0816 22.6441 16.0575C23.046 15.7209 23.4942 15.6341 23.8893 15.3627C24.137 15.1926 24.1415 15.1255 24.1314 14.8209C24.062 14.9008 23.9799 14.9732 23.8903 15.0446C23.2473 15.5552 22.3859 15.6284 21.9729 14.8328L21.9536 14.7942C21.4916 15.4823 20.2924 15.7393 20.0414 14.741C19.6161 15.4541 18.6819 15.6118 17.9649 15.2651C17.7307 15.1519 17.5853 14.9926 17.4255 14.7929C17.2067 15.0795 16.9874 15.3598 16.6001 15.4035C14.9385 15.5912 15.5173 13.7717 15.4216 12.8375C15.325 11.8949 14.1721 12.4533 14.0314 13.1765C13.9854 13.4135 13.9714 13.9543 13.9591 14.2236C13.9519 14.3807 13.9881 15.0073 13.9613 15.2144C13.9564 15.2523 13.933 15.2853 13.8988 15.3023C13.832 15.3353 13.7491 15.3322 13.6821 15.3346C13.5992 15.3375 13.1863 15.3388 13.1241 15.3252C13.073 15.3141 12.9771 15.2797 12.9771 15.1798V14.4749L12.9776 14.4741C12.0421 15.6711 9.45195 15.8272 9.08588 14.0494C8.91201 13.2053 9.20869 12.2312 9.95225 11.75C10.9154 11.1263 12.6192 11.4885 12.2742 12.9054C12.0413 13.8625 10.8306 13.9096 10.0296 13.8625C9.88135 13.9578 10.314 14.3968 10.4029 14.4595C11.0606 14.9218 12.0365 14.4395 12.5663 13.9698C13.0603 13.532 13.1161 13.3666 13.1379 12.7067C13.1491 12.371 13.089 12.0259 13.0869 11.7071C13.0869 11.6752 13.1063 11.6464 13.1358 11.6336C13.3482 11.5426 13.8831 11.4656 13.9852 11.6642C14.015 11.7221 13.9969 12.0485 14.0527 12.0003C14.1085 11.9521 14.137 11.8701 14.2388 11.7876C14.7115 11.4044 15.5725 11.3231 15.9915 11.7617C16.6205 12.42 16.1872 13.5991 16.3302 14.3487C16.3868 14.6451 16.7377 14.5943 16.9214 14.4481C16.952 14.4238 17.0419 14.3543 17.1104 14.1365C17.1445 14.0289 17.1192 13.7602 17.1198 13.6353C17.1256 12.3891 17.9989 11.1958 19.4191 11.4941C19.5925 11.5304 20.0025 11.8951 20.0047 11.897L20.0127 9.74187ZM24.0081 16.0564C24.0942 15.856 24.0658 15.8876 23.8919 15.9707C23.6211 16.1004 23.1615 16.4254 23.1064 16.4793V16.4791C22.8857 16.6945 22.6879 16.9674 22.9051 17.1895C22.9724 17.2582 23.0726 17.2811 23.1629 17.2484C23.6832 17.0593 23.8005 16.5403 24.0081 16.0564ZM19.2338 14.5556C20.3575 14.1104 20.3147 11.9822 18.9201 12.1928C17.6158 12.3899 17.8516 15.1031 19.2338 14.5556ZM11.1789 12.1657C10.8541 12.0381 10.5207 12.1942 10.3083 12.4519C10.1535 12.6397 10.0499 12.8862 9.9765 13.1174H10.9194C11.5019 13.1174 11.7443 12.3881 11.1789 12.1657Z" fill="#252626"/>
<path fill-rule="evenodd" clip-rule="evenodd" d="M5.342 9.63456C5.46509 9.6074 5.69718 9.60397 5.80644 9.63299C5.88856 9.65483 5.94466 9.68783 5.94281 9.75012L5.94025 9.85656C5.92829 10.4499 5.92851 11.8921 5.91331 12.0264L6.34688 11.7295C7.11889 11.2598 8.28861 11.4699 8.67994 12.3279C9.35039 13.7973 8.65017 15.6048 6.75044 15.4046C6.50188 15.3785 6.04359 15.1066 5.91331 14.8834L5.92656 15.2448C5.81754 15.4157 5.16174 15.3332 5.12 15.2267L5.1325 9.73681C5.12907 9.69474 5.24312 9.65612 5.342 9.63456ZM8.05388 13.2327C7.96214 12.31 7.03567 11.9505 6.35431 12.6013C5.78142 13.1483 5.77691 14.5242 6.68344 14.6491C7.58997 14.774 8.14293 14.1301 8.05388 13.2327Z" fill="#252626"/>
</svg>
