<svg width="532" height="532" viewBox="0 0 532 532" fill="none" xmlns="http://www.w3.org/2000/svg">
<!-- Main smiley face circle with gradient -->
<path d="M266 522C407.385 522 522 407.385 522 266C522 124.615 407.385 10 266 10C124.615 10 10 124.615 10 266C10 407.385 124.615 522 266 522Z" fill="url(#paint0_radial_1421_6058)"/>
<!-- Black border around the face -->
<path d="M512 266C512 130.138 401.862 20 266 20C130.138 20 20 130.138 20 266C20 401.862 130.138 512 266 512C401.862 512 512 401.862 512 266ZM532 266C532 412.908 412.908 532 266 532C119.092 532 0 412.908 0 266C0 119.092 119.092 0 266 0C412.908 0 532 119.092 532 266Z" fill="#252626"/>
<!-- Smile mouth -->
<path d="M409.143 257.137C414.116 250.511 423.518 249.171 430.144 254.144C436.77 259.116 438.11 268.519 433.137 275.145C426.693 283.731 421.175 292.973 414.555 303.383C408.155 313.448 400.936 324.232 391.86 333.989C360.843 367.333 318.969 390.415 274.301 394.177C230.815 397.839 187.725 385.916 151.115 361.824L149.377 360.668C141.351 355.272 132.832 347.447 126.247 341.931C118.844 335.73 112.882 331.489 107.508 329.52C99.7301 326.669 95.735 318.052 98.5855 310.273C101.436 302.495 110.053 298.5 117.832 301.351C128.547 305.278 137.973 312.62 145.51 318.934C153.865 325.931 159.838 331.551 166.116 335.772C197.844 357.106 234.886 367.389 271.784 364.282C307.848 361.245 343.097 342.363 369.894 313.557C376.999 305.919 383.008 297.086 389.241 287.284C395.255 277.827 401.778 266.95 409.143 257.137Z" fill="#252626"/>
<!-- Left eye -->
<path d="M202.979 172.064C221.367 172.064 236.273 186.971 236.273 205.358C236.273 223.746 221.367 238.652 202.979 238.652C184.592 238.652 169.685 223.746 169.685 205.358C169.685 186.971 184.592 172.065 202.979 172.064Z" fill="#252626"/>
<!-- Right eye -->
<path d="M328.24 158C346.564 158 361.094 173.087 361.094 191.294C361.094 209.501 346.564 224.588 328.24 224.588C309.916 224.588 295.385 209.501 295.385 191.294C295.385 173.087 309.916 158 328.24 158Z" fill="#252626"/>
<defs>
<radialGradient id="paint0_radial_1421_6058" cx="0" cy="0" r="1" gradientUnits="userSpaceOnUse" gradientTransform="translate(78.5548 108.455) rotate(15.48) scale(470.806)">
<stop stop-color="#F7F7C0"/>
<stop offset="1" stop-color="#F0F081"/>
</radialGradient>
</defs>
</svg>
