<svg width="236" height="50" viewBox="0 0 236 50" fill="none" xmlns="http://www.w3.org/2000/svg">
<path d="M12.8155 11.0661C10.8657 11.0661 9.00652 11.5708 7.42854 12.5301L5.14282 14.0924C5.18188 13.1316 5.20062 10.524 5.21937 7.78521C5.23812 5.13546 5.25843 2.39509 5.29749 1.04834C5.31311 0.515577 4.78191 0.312471 4.38039 0.206231C4.07729 0.126551 3.61484 0.0812424 3.07582 0.0812424C2.53681 0.0812424 1.95405 0.131238 1.57753 0.214042C0.654176 0.417148 0.199531 0.674937 0.222967 0.967097L0.149536 33.1766C0.149536 33.1969 0.152661 33.2156 0.160473 33.2344C0.360454 33.7437 1.98218 34.0156 3.07426 34.0156C3.70545 34.0156 4.81785 33.9312 5.17719 33.3672C5.19438 33.3406 5.20219 33.3094 5.20219 33.2766L5.14282 31.6767C6.20522 32.9532 8.56125 34.2374 9.8705 34.3749C10.4408 34.4343 11.0063 34.4655 11.5516 34.4655C15.6122 34.4655 18.9431 32.761 20.9304 29.666C23.3224 25.9429 23.4895 20.7449 21.3679 16.1032C19.9477 12.9957 16.6699 11.0661 12.814 11.0661H12.8155ZM15.6871 27.7427C14.5123 29.041 12.8358 29.7269 10.8376 29.7269C10.4126 29.7269 9.96737 29.6957 9.51741 29.6332C7.70039 29.3832 6.36145 28.1974 5.74745 26.2928C4.8366 23.4744 5.68183 19.781 7.66914 17.8858C8.97371 16.6422 10.4751 15.9844 12.0109 15.9844C14.8575 15.9844 17.0698 18.2483 17.3932 21.4917C17.6463 24.029 17.0401 26.2491 15.6871 27.7427Z" fill="#252626"/>
<path d="M137.446 13.3472C134.274 13.3472 131.39 14.7502 129.623 17.125L130.047 3.0919C130.047 3.07784 130.047 3.06378 130.042 3.04971C129.847 2.26229 128.523 2.21854 127.733 2.19354C127.658 2.19042 127.588 2.18886 127.528 2.18573C127.267 2.17323 127.025 2.16698 126.789 2.16698C125.266 2.16698 124.477 2.39978 124.379 2.87942C124.377 2.88723 124.375 2.89504 124.375 2.90285C124.368 3.0669 123.836 14.2159 123.763 23.7634C123.515 24.1665 123.236 24.5633 122.929 24.9117C121.177 26.8928 118.321 29.1191 117.582 29.4879L117.509 21.3386C117.509 21.1715 117.493 20.6434 117.473 19.9106C117.41 17.6765 117.296 13.5175 117.34 11.8895C117.343 11.7598 117.292 11.6348 117.189 11.5286C116.718 11.0458 115.317 11.0083 114.898 11.0083C113.784 11.0083 111.881 11.2489 111.819 12.152C111.769 12.8722 111.811 13.9893 111.861 15.2829C112.002 18.9873 112.214 24.5868 110.419 27.0959C109.385 28.5411 107.849 29.4754 106.507 29.4754C105.051 29.4754 104.082 28.4083 103.782 26.4694L103.812 11.9348C103.812 11.9239 103.812 11.9114 103.809 11.9004C103.632 11.1052 101.787 11.0193 101.001 11.0193C100.973 11.0193 98.1841 11.0271 98.12 11.7395C98.0669 12.0832 98.1122 13.7284 98.1763 16.0047C98.2857 19.9216 98.4372 25.2851 98.1185 26.4163C97.8138 27.5021 96.8405 28.6692 95.8062 29.1941C95.5859 29.3066 95.3359 29.3644 95.086 29.3644C94.775 29.3644 94.4751 29.2754 94.2173 29.1082C93.4095 28.5817 92.9736 27.7458 92.844 26.4756C92.4753 22.8885 92.7534 18.317 93.0221 13.8971C93.1518 11.7598 93.2752 9.74127 93.3174 7.93051C93.3564 6.28066 93.3892 2.43883 93.2908 1.02959C93.2236 0.0734306 91.2598 0 90.6598 0C89.4709 0 87.696 0.262475 87.6773 0.98897L87.6304 13.2925C86.9711 12.7285 85.2337 11.2974 84.3745 11.1177C83.5042 10.9349 82.6434 10.8427 81.8153 10.8427C74.6176 10.8427 70.7023 17.5359 70.6742 23.8337C70.6742 24.0384 70.6835 24.3102 70.696 24.5993C70.7257 25.3554 70.7632 26.296 70.6273 26.7272C70.243 27.9443 69.7571 28.3302 69.568 28.4801C69.0618 28.8817 68.3713 29.1316 67.7651 29.1316C67.3167 29.1316 66.5339 28.9832 66.3449 27.9911C66.0559 26.4803 66.1715 24.6727 66.2933 22.7604C66.5277 19.0935 66.7714 15.3033 64.3123 12.7347C63.2093 11.5817 61.5141 10.9474 59.5393 10.9474C57.4364 10.9474 55.2912 11.6677 53.8008 12.8738C53.4352 13.1691 53.2211 13.4675 53.0508 13.7065C52.9555 13.8393 52.8727 13.9565 52.7774 14.0549C52.7305 13.8643 52.7024 13.4487 52.6852 13.1816C52.6524 12.6738 52.6259 12.3535 52.5477 12.2004C52.2728 11.6677 51.5275 11.3849 50.3917 11.3849C49.2559 11.3849 47.9919 11.677 47.356 11.9489C47.1233 12.0489 46.9733 12.2738 46.9748 12.5238C46.9795 13.3581 47.0545 14.2393 47.1264 15.0923C47.217 16.175 47.3123 17.2953 47.2748 18.3827C47.1498 22.1495 46.8717 23.1119 43.9673 25.6804C41.9175 27.4943 38.346 29.6129 35.0291 29.6129C33.6636 29.6129 32.4574 29.2519 31.4466 28.5426C30.9576 28.1989 29.1218 26.3116 29.139 25.5132C29.1406 25.4304 29.164 25.3711 29.2109 25.3273C30.0045 25.3726 30.731 25.3945 31.4325 25.3945C37.8413 25.3945 41.566 23.4416 42.5049 19.5904C43.0736 17.2609 42.7362 15.2173 41.53 13.6815C40.1395 11.9098 37.6851 10.8943 34.7979 10.8943C32.5606 10.8943 30.3686 11.5145 28.6234 12.6426C24.4801 15.3204 22.3584 20.9355 23.463 26.2975C24.0036 28.916 25.3581 30.9502 27.4892 32.3438C29.3718 33.575 31.7794 34.2265 34.4479 34.2265C39.1099 34.2265 43.7173 32.2642 46.3296 29.1957V32.8938C46.3296 33.3969 46.6889 33.7625 47.3154 33.8999C47.6045 33.9624 48.9575 33.9703 49.5246 33.9703C49.9964 33.9703 50.4417 33.9656 50.6323 33.9593C50.6854 33.9578 50.7401 33.9562 50.7979 33.9546C51.1744 33.9453 51.6025 33.9359 51.9712 33.7547C52.2197 33.6328 52.3884 33.3953 52.4243 33.1188C52.5243 32.3438 52.4774 30.594 52.4399 29.1863C52.4181 28.3505 52.3978 27.6302 52.4134 27.2912C52.4259 27.0209 52.4384 26.7053 52.4524 26.3585C52.5196 24.6508 52.6134 22.312 52.8352 21.1699C53.2571 19.0029 55.749 16.3875 58.2097 16.3875C59.6283 16.3875 60.5111 17.3749 60.6954 19.167C60.822 20.4012 60.7454 21.9011 60.6642 23.4884C60.4876 26.9412 60.2876 30.8534 62.2625 32.9313C63.228 33.9468 64.5966 34.4405 66.4449 34.4405C66.8683 34.4405 67.3198 34.414 67.7916 34.3608C70.0914 34.1015 71.396 32.4845 72.6287 30.8752C73.4567 31.897 74.3363 32.861 75.7268 33.5328C77.1533 34.2218 78.7484 34.5858 80.3389 34.5858C83.523 34.5858 86.3383 33.1406 87.9429 30.7002C88.6522 33.0282 90.3864 34.3546 92.7455 34.3546C95.1203 34.3546 97.7404 32.9594 99.2152 30.9346C100.423 33.2469 102.399 34.5171 104.807 34.5171C106.752 34.5171 108.85 33.7015 110.716 32.222C111.191 31.8455 111.572 31.5064 111.892 31.1752C111.928 32.6204 111.805 32.961 110.525 33.8375C109.525 34.5218 108.488 34.9967 107.388 35.4967C105.99 36.1341 104.544 36.7934 103.195 37.9214C100.109 40.5025 98.7715 43.9803 99.7886 46.7816C100.52 48.797 102.368 50 104.73 50C106.132 50 107.668 49.5938 109.292 48.7939C111.842 47.5377 113.851 45.352 115.264 42.2976C116.709 39.1744 117.182 35.8841 117.324 33.6422C119.404 32.6126 121.782 31.4283 123.791 29.8753C123.838 31.897 123.925 33.6484 124.069 34.9327C124.155 35.7013 127.241 35.7232 127.592 35.7232C129.33 35.7232 129.417 35.4764 129.45 35.3842C129.626 34.8905 129.612 34.3062 129.575 33.9265C131.664 35.5404 133.862 36.3575 136.115 36.3575C139.426 36.3575 142.638 34.4749 144.705 31.3205C147.201 27.5099 147.6 22.7229 145.767 18.5139C144.378 15.3236 141.188 13.3409 137.441 13.3409L137.446 13.3472ZM30.917 16.9968C31.9075 15.7954 33.2199 15.108 34.5182 15.108C34.9744 15.108 35.4244 15.1939 35.8571 15.3642C37.4179 15.9766 37.7804 17.2218 37.5976 18.1827C37.2914 19.7997 35.7524 20.6449 34.3885 20.6449H29.0625C29.578 19.0795 30.1858 17.8843 30.9185 16.9968H30.917ZM83.1933 29.0941C82.4949 29.3707 81.8231 29.5113 81.1951 29.5113C78.2813 29.5113 76.7533 26.5366 76.533 23.5884C76.1768 18.8389 78.7281 15.9407 81.431 15.5329C81.8013 15.4767 82.1637 15.4486 82.509 15.4486C85.1572 15.4486 87.0617 17.1484 87.6054 19.995C88.246 23.3572 86.7711 27.6802 83.1949 29.0957L83.1933 29.0941ZM111.166 37.9824C110.964 38.4495 110.777 38.926 110.594 39.3885C109.661 41.7539 108.78 43.9865 106.29 44.8911C106.149 44.9427 106.001 44.9692 105.852 44.9692C105.507 44.9692 105.182 44.8333 104.94 44.5849C104.593 44.2302 104.426 43.8475 104.432 43.4147C104.441 42.6444 104.993 41.7367 106.119 40.6384C106.404 40.3603 109.102 38.4448 110.694 37.684C110.797 37.634 110.892 37.5887 110.978 37.5465C111.142 37.4668 111.309 37.384 111.414 37.3449C111.369 37.5137 111.231 37.8308 111.166 37.9839V37.9824ZM140.502 27.9927C139.43 30.4253 137.36 31.8205 134.821 31.8205C134.712 31.8205 134.601 31.8173 134.49 31.8126C132.487 31.7205 130.947 30.5503 130.155 28.5161C129.051 25.6867 129.7 21.9433 131.633 19.995C132.895 18.7232 134.559 17.9624 136.085 17.9624C137.33 17.9624 138.444 18.4608 139.308 19.4044C141.286 21.5652 141.778 25.0961 140.504 27.9911L140.502 27.9927Z" fill="#252626"/>
<path d="M235.817 25.9866C235.776 25.7023 235.649 25.4554 235.454 25.2758C235.013 24.8695 234.19 24.5758 233.493 24.5758C233.054 24.5758 232.726 24.6914 232.545 24.9102C230.767 27.0568 229.773 28.2192 228.397 29.1051C226.103 30.5799 223.579 31.4267 221.473 31.4267C219.99 31.4267 218.698 31.0237 217.634 30.2284C215.695 28.7786 214.731 25.8944 215.176 22.8807C215.598 20.0325 217.135 17.8655 219.29 17.0843C219.777 16.9078 220.234 16.8172 220.645 16.8172C221.249 16.8172 221.76 17.0156 222.119 17.389C222.479 17.7624 222.671 18.2967 222.649 18.8529C222.633 19.2373 222.536 19.6216 222.443 19.9934C222.246 20.7777 222.041 21.5886 222.801 22.1042C223.185 22.3651 223.668 22.5041 224.199 22.5041C225.692 22.5041 227.425 21.3808 227.525 19.77C227.766 15.8954 226.136 13.3191 223.055 12.6988C222.33 12.5535 221.598 12.4785 220.876 12.4785C218.024 12.4785 215.267 13.6425 213.109 15.7548C211.019 17.8015 209.656 20.5496 209.271 23.4931C209.214 23.9243 209.205 24.5321 209.196 25.1758C209.182 26.0694 209.169 26.9943 209.024 27.4224C208.635 28.5739 206.374 30.7159 204.921 30.7159C204.23 30.7159 203.804 30.2175 203.651 29.2363C203.424 27.7849 203.659 25.946 203.905 23.9993C204.423 19.9341 205.007 15.3267 201.014 13.8565C200.298 13.594 199.536 13.4597 198.743 13.4597C194.794 13.4597 190.949 16.7234 189.415 18.0921C189.41 17.8889 189.419 17.6765 189.432 17.389C189.438 17.2531 189.444 17.1015 189.451 16.9281C189.529 16.8844 189.691 16.8078 189.861 16.725C190.744 16.3016 192.814 15.3111 194.608 13.7925C196.855 11.8895 197.973 9.78189 197.933 7.52898C197.836 2.32478 195.875 0.00312471 191.571 0.00312471C191.314 0.00312471 191.047 0.0109365 190.774 0.0281224C187.446 0.228104 185.331 2.62163 184.309 7.34619C183.446 11.3317 183.521 16.3235 183.582 20.3356C183.612 22.3182 183.639 24.0306 183.557 25.3726C183.429 27.4912 180.186 30.2768 178.919 30.4237C178.778 30.4393 178.639 30.4487 178.503 30.4487C177.067 30.4487 176.028 29.5504 175.857 28.1614C175.597 26.0601 175.686 23.7306 175.774 21.4792C175.819 20.3043 175.861 19.1935 175.858 18.1139H180.939C181.617 18.1139 181.668 16.1875 181.668 15.597C181.668 15.0064 181.615 13.1191 180.929 13.1191H176.016L176.135 6.03068C176.105 5.21201 174.655 4.91985 173.31 4.91985C172.357 4.91985 170.735 5.09952 170.707 5.77602C170.634 7.5118 170.693 12.1895 170.707 13.1175C170.707 13.1175 167.076 13.066 167.073 13.066C166.268 13.066 166.053 14.858 166.053 15.9173C166.053 16.4781 166.112 17.7843 166.656 17.7843C167.068 17.7843 167.556 17.7608 168.026 17.739C168.507 17.7155 169.006 17.6921 169.437 17.6921C170.416 17.6921 170.626 17.8249 170.669 17.8889L169.963 24.8102C169.857 25.6523 163.737 31.069 158.441 31.069C157.104 31.069 155.93 30.7127 154.952 30.0113C153.988 29.3191 153.512 28.3114 153.006 27.2443L152.965 27.1584C152.927 27.0787 152.866 26.949 152.835 26.8662H152.838C152.881 26.8662 152.929 26.8678 152.987 26.8709C153.04 26.8725 153.099 26.8756 153.165 26.8772L153.601 26.8881C154.287 26.9053 154.994 26.924 155.718 26.924C159.306 26.924 163.231 26.4772 165.126 23.1697C166.484 20.7996 166.601 18.4045 165.454 16.4266C164.144 14.1643 161.406 12.7597 158.31 12.7597C157.624 12.7597 156.932 12.8316 156.254 12.9722C150.198 14.2284 147.325 20.0497 147.217 24.9274C147.161 27.4709 147.783 29.8316 149.017 31.7533C150.371 33.8656 152.417 35.3186 154.93 35.9576C155.944 36.2154 156.985 36.345 158.025 36.345C161.92 36.345 165.953 34.5686 170.348 30.9143C170.569 32.7547 171.519 34.2937 172.988 35.167C174.075 35.8154 175.364 36.1575 176.714 36.1575C179.837 36.1575 182.892 34.3843 184.103 31.9064C184.132 32.4204 184.11 33.3844 184.098 33.9671C184.087 34.4811 184.078 34.8889 184.09 35.0498C184.142 35.7201 184.999 36.1216 186.385 36.1216C187.635 36.1216 189.399 35.7326 189.408 34.8702C189.411 34.5718 189.408 33.9265 189.408 33.1781C189.404 31.6205 189.396 29.4863 189.432 28.6536C189.501 27.0397 190.1 24.7977 190.96 22.9432C191.997 20.7043 193.308 19.1826 194.65 18.6592C195.355 18.3842 195.967 18.2452 196.47 18.2452C197.017 18.2452 197.437 18.4045 197.756 18.7311C198.623 19.6232 198.568 21.623 198.518 23.3884C198.511 23.6962 198.501 23.9993 198.498 24.2899C198.489 25.0289 198.425 25.8195 198.356 26.6553C198.167 28.952 197.972 31.3268 198.862 33.2078C199.865 35.3279 201.66 35.7716 202.99 35.7716C205.751 35.7716 209.078 33.8421 210.445 31.4596L210.594 31.4158C212.544 34.5499 216.065 36.2732 220.527 36.2732C223.011 36.2732 225.613 35.7076 227.853 34.6796C229.869 33.7547 236.296 29.2394 235.826 25.9929L235.817 25.9866ZM191.743 4.5277C191.813 4.5152 191.882 4.51051 191.947 4.51051C192.778 4.51051 193.191 5.43855 193.292 6.23223C193.508 7.92269 192.092 9.83345 191.475 10.5756C190.643 11.577 189.84 12.2129 189.451 12.3879C189.447 12.2301 189.443 12.0661 189.438 11.8989C189.372 9.30381 189.274 5.38543 191.741 4.5277H191.743ZM158.638 16.8125C158.875 16.8125 159.124 16.8265 159.375 16.8562C160.25 16.9578 161.058 17.7405 161.383 18.8045C161.636 19.631 161.605 20.7746 160.759 21.5011C160.353 21.8511 159.308 22.451 157.98 22.4838H153.11C154.143 18.6686 155.952 16.8125 158.636 16.8125H158.638Z" fill="#252626"/>
</svg>
