<svg width="80" height="100" viewBox="0 0 80 100" fill="none" xmlns="http://www.w3.org/2000/svg">
<g clip-path="url(#clip0_16_13495)">
<path d="M21.7578 17.912C18.4098 17.912 15.2138 18.736 12.5058 20.3L8.58183 22.848C8.64983 21.28 8.68183 17.028 8.71383 12.564C8.74583 8.244 8.78183 3.776 8.84583 1.58C8.87383 0.712 7.95783 0.38 7.26983 0.204C6.74983 0.072 5.95383 0 5.02983 0C4.10583 0 3.10183 0.08 2.45783 0.216C0.869831 0.544 0.089831 0.964 0.129831 1.44L0.00183105 53.968C0.00183105 54 0.00983106 54.032 0.0218311 54.06C0.365831 54.892 3.14983 55.336 5.02583 55.336C6.10983 55.336 8.01783 55.2 8.63783 54.28C8.66583 54.236 8.68183 54.184 8.67783 54.132L8.57783 51.524C10.4018 53.604 14.4498 55.7 16.6978 55.924C17.6778 56.024 18.6498 56.072 19.5858 56.072C26.5578 56.072 32.2818 53.292 35.6938 48.244C39.8018 42.172 40.0898 33.696 36.4458 26.124C34.0058 21.056 28.3778 17.908 21.7538 17.908L21.7578 17.912ZM26.6898 45.108C24.6698 47.224 21.7898 48.344 18.3618 48.344C17.6298 48.344 16.8658 48.292 16.0938 48.192C12.9738 47.784 10.6738 45.848 9.61783 42.744C8.05383 38.148 9.50583 32.124 12.9178 29.032C15.1578 27.004 17.7378 25.932 20.3778 25.932C25.2658 25.932 29.0698 29.624 29.6218 34.912C30.0538 39.052 29.0138 42.672 26.6938 45.104L26.6898 45.108Z" fill="#252626"/>
<path d="M63.7458 62.464C58.2978 62.464 53.3458 64.752 50.3098 68.624L51.0378 45.74C51.0378 45.716 51.0378 45.692 51.0298 45.672C50.6938 44.388 48.4218 44.316 47.0658 44.276C46.9378 44.272 46.8178 44.268 46.7138 44.264C46.2658 44.244 45.8498 44.236 45.4418 44.236C42.8258 44.236 41.4698 44.616 41.3018 45.396C41.3018 45.408 41.2978 45.424 41.2978 45.436C41.2778 45.832 39.3018 85.192 40.7818 97.676C40.9298 98.928 46.2298 98.964 46.8338 98.964C49.8178 98.964 49.9698 98.564 50.0258 98.412C50.3298 97.608 50.3058 96.652 50.2418 96.036C53.8298 98.668 57.6058 100 61.4738 100C67.1618 100 72.6778 96.928 76.2258 91.784C80.5138 85.572 81.1978 77.764 78.0498 70.9C75.6658 65.696 70.1858 62.464 63.7498 62.464H63.7458ZM68.9938 86.344C67.1538 90.312 63.5978 92.588 59.2378 92.588C59.0498 92.588 58.8618 92.588 58.6698 92.576C55.2298 92.428 52.5858 90.516 51.2218 87.2C49.3258 82.584 50.4418 76.48 53.7578 73.304C55.9258 71.228 58.7858 69.988 61.4058 69.988C63.5458 69.988 65.4578 70.8 66.9418 72.34C70.3418 75.864 71.1858 81.62 68.9938 86.344Z" fill="#252626"/>
</g>
<defs>
<clipPath id="clip0_16_13495">
<rect width="80.0037" height="100" fill="white" transform="translate(0.00183105)"/>
</clipPath>
</defs>
</svg>
