<svg width="151" height="216" viewBox="0 0 151 216" fill="none" xmlns="http://www.w3.org/2000/svg">
<g clip-path="url(#clip0_1369_9972)">
<path d="M83.7695 69.0004C70.8783 69.0004 58.5724 72.1746 48.1455 78.1995L33.0365 88.0148C33.2983 81.9746 33.4215 65.5951 33.5448 48.3989C33.668 31.7575 33.8066 14.5459 34.053 6.08646C34.1608 2.74276 30.6338 1.46383 27.9848 0.785847C25.9826 0.277358 22.9176 0 19.3598 0C15.8021 0 11.9363 0.308175 9.4566 0.832073C3.34215 2.09559 0.338836 3.71351 0.492852 5.54715L0 207.895C0 208.018 0.0308033 208.142 0.0770082 208.249C1.40155 211.454 12.1211 213.165 19.3444 213.165C23.5183 213.165 30.8649 212.641 33.2521 209.097C33.3599 208.927 33.4215 208.727 33.4061 208.527L33.0211 198.48C40.0442 206.493 55.6307 214.567 64.2864 215.43C68.0598 215.815 71.8024 216 75.4064 216C102.251 216 124.291 205.291 137.429 185.845C153.246 162.455 154.355 129.803 140.324 100.635C130.929 81.1117 109.259 68.985 83.7541 68.985L83.7695 69.0004ZM102.76 173.765C94.9819 181.916 83.8927 186.23 70.6935 186.23C67.875 186.23 64.9333 186.03 61.9608 185.645C49.9475 184.073 41.0916 176.615 37.0255 164.658C31.0035 146.953 36.5943 123.748 49.7319 111.837C58.3568 104.025 68.2908 99.895 78.4559 99.895C97.2767 99.895 111.924 114.117 114.049 134.488C115.712 150.436 111.708 164.381 102.775 173.749L102.76 173.765Z" fill="#252626"/>
</g>
<defs>
<clipPath id="clip0_1369_9972">
<rect width="150.12" height="216" fill="white"/>
</clipPath>
</defs>
</svg>
