<svg width="170" height="100" viewBox="0 0 170 100" fill="none" xmlns="http://www.w3.org/2000/svg">
<g clip-path="url(#clip0_16_13487)">
<path d="M61.3876 38.0793C54.0788 47.4307 33.8435 48.6498 30.9836 34.7611C29.6253 28.1663 31.943 20.5561 37.7522 16.7968C45.2769 11.9245 58.5879 14.7539 55.8921 25.8237C54.0728 33.3007 44.6145 33.6689 38.3566 33.3007C37.1977 34.0454 40.579 37.4761 41.2727 37.965C46.4109 41.5765 54.0352 37.8089 58.1746 34.1391C62.0336 30.7189 62.4696 29.4268 62.64 24.2717C62.7272 21.6483 62.2579 18.952 62.2412 16.4619C62.2412 16.2122 62.3928 15.9875 62.6234 15.8877C64.2829 15.1762 68.4616 14.5749 69.2591 16.1269C69.4917 16.5784 69.3506 19.1289 69.7867 18.7524C70.2229 18.3758 70.445 17.7351 71.2405 17.0901C74.9332 14.0964 81.6604 13.4619 84.9337 16.8883C89.8478 22.0311 86.4624 31.2431 87.5798 37.0994C88.0221 39.415 90.7636 39.0176 92.1988 37.8754C92.4377 37.6861 93.1397 37.1431 93.6754 35.4413C93.9413 34.6009 93.7439 32.5019 93.7482 31.5261C93.7938 21.7898 100.617 12.4675 111.711 14.7976C113.07 15.0826 116.287 17.9452 116.287 17.9452L116.349 1.1085C116.38 -0.185513 123.274 -0.568308 123.396 1.17715C123.525 3.02246 123.483 8.15481 123.431 10.3476C123.259 17.708 122.073 27.9457 122.804 35.0691C122.97 36.6833 123.508 37.9337 124.723 38.7263C125.415 39.1778 126.306 39.2235 127.041 38.8511C128.528 38.0981 129.818 36.467 130.223 35.0231C130.892 32.637 130.038 16.6866 130.229 15.457C130.31 14.5541 137.054 14.1984 137.382 15.6838L137.343 35.0524C138.269 41.0896 143.761 39.8852 146.541 35.9906C149.796 31.4344 148.182 19.7115 148.442 15.9855C148.558 14.3128 155.404 14.2504 155.366 15.6172C155.289 18.5007 155.582 27.3091 155.591 28.2057L155.69 39.3317C156.168 39.4233 160.667 35.922 163.157 33.0989C164.881 31.1454 165.888 28.133 166.162 28.0039C166.974 27.6211 169.149 27.8333 169.697 28.678C170.659 30.1613 169.099 33.4587 168.245 34.8713C165.489 39.4337 159.977 42.1674 155.358 44.4578C154.901 52.0743 152.062 60.9907 144.788 64.5794C132.761 70.5128 127.353 58.4506 136.907 50.4494C140.047 47.8198 143.549 47.1415 146.635 45.0217C148.571 43.6922 148.606 43.168 148.527 40.788C147.985 41.4122 147.343 41.978 146.643 42.5356C141.54 46.5881 134.676 47.1144 131.513 40.58C127.903 45.9557 118.534 47.9633 116.574 40.1639C113.25 45.7352 105.952 46.9668 100.351 44.2581C98.5209 43.3739 97.3849 42.1298 96.1367 40.5696C94.4272 42.8081 92.7138 44.9987 89.6878 45.34C76.707 46.8067 81.2284 32.5913 80.4808 25.2931C79.7269 17.9286 70.7193 22.2911 69.6205 27.9415C69.2611 29.7931 69.1512 34.0183 69.0557 36.1217C68.9995 37.3491 69.282 42.2443 69.0723 43.8628C69.0348 44.1583 68.852 44.4163 68.5841 44.5494C68.0628 44.8074 67.4148 44.7824 66.8915 44.8011C66.2435 44.8241 63.0181 44.8344 62.5319 44.7283C62.1332 44.6409 61.3835 44.3726 61.3835 43.5924V38.0856L61.3876 38.0793ZM37.9412 27.4796H45.3081C49.8586 27.4796 51.7528 21.7815 47.3352 20.0443C44.7972 19.0478 42.1927 20.2668 40.5332 22.2807C39.3245 23.7474 38.5144 25.6739 37.9412 27.4796ZM107.813 20.2565C97.6236 21.7961 99.4659 42.9933 110.264 38.7159C119.043 35.2376 118.709 18.6109 107.813 20.2565ZM140.518 53.7428C138.794 55.4257 137.249 57.5581 138.946 59.2931C139.472 59.83 140.255 60.0089 140.961 59.753C145.025 58.2759 145.941 54.2211 147.563 50.4411C148.236 48.8746 148.014 49.122 146.656 49.7711C144.539 50.7844 140.948 53.3244 140.518 53.7448V53.7428Z" fill="#252626"/>
<path d="M6.42807 1.17092C6.31384 5.09248 6.32422 17.8391 6.19754 18.9563L9.58501 16.6366C15.6164 12.9668 24.7548 14.6082 27.812 21.3113C33.05 32.7909 27.5795 46.9128 12.7378 45.3483C10.7958 45.1444 7.21523 43.0204 6.19754 41.2768L6.30138 44.1C5.44985 45.4356 0.326077 44.7907 0 43.9585L0.0976153 1.06898C0.0706154 0.740272 0.961616 0.438615 1.73423 0.270102C2.69585 0.0579004 4.50899 0.0308551 5.36261 0.257618C6.00438 0.428213 6.44261 0.686181 6.42807 1.173V1.17092ZM9.64316 23.4478C5.16739 27.7209 5.13208 38.4704 12.2144 39.4461C19.2967 40.4218 23.6167 35.3915 22.921 28.3806C22.2044 21.1719 14.9663 18.3634 9.64316 23.4478Z" fill="#252626"/>
<path d="M119.66 70.4317C127.226 73.2215 122.075 84.593 123.033 90.7468C123.824 95.8459 129.845 90.5409 130.576 88.3648C130.921 87.3454 130.734 84.4641 130.915 83.093C132.061 74.3261 139.835 67.0509 148.994 68.8983C153.312 69.768 155.059 73.44 154.77 78.098C154.604 80.7817 149.823 82.5272 148.215 81.1124C147.021 80.0639 148.637 78.5515 148.703 76.8996C148.776 75.0959 147.254 73.1444 143.962 74.3387C137.374 76.7331 136.219 88.0902 141.706 92.2031C145.991 95.4131 153.177 93.0789 157.138 90.2393C158.245 89.4465 161.225 85.8204 162.428 85.1443C163.36 84.62 165.198 84.9217 165.714 86.0306C166.912 90.0354 158.475 96.3181 155.321 97.7681C147.941 101.157 137.145 100.959 132.557 93.3661L132.125 93.493C129.48 98.232 120.075 102.297 117.055 95.9061C115.464 92.5402 116.549 87.7822 116.592 84.1228C116.642 79.9954 117.446 73.985 111.194 76.4294C107.061 78.0459 104.299 85.812 104.124 89.925C104.054 91.5748 104.11 96.9963 104.095 98.2093C104.077 99.8174 97.5883 100.377 97.4388 98.4359C97.3849 97.7287 97.6672 92.7835 97.2145 93.8404C95.1459 98.6772 87.7666 101.525 82.5805 98.4318C80.4558 97.1648 79.3177 94.9554 79.1328 92.5339C73.4171 97.3646 66.2911 101.434 58.5236 99.4594C43.8044 95.7189 45.846 72.2561 60.2744 69.2604C68.5904 67.5337 76.68 74.0869 71.847 82.5333C68.7877 87.88 61.6139 87.4993 56.1309 87.3641C55.3873 87.3454 55.294 87.2393 55.6719 88.0361C56.3594 89.4902 57.0178 90.9361 58.3802 91.9139C65.7408 97.2106 78.4683 86.3946 78.6614 84.8468L79.6064 75.5724C79.3904 74.8296 76.1088 75.2581 74.0588 75.2581C73.1325 75.2581 73.2613 69.3415 74.63 69.3915L79.652 69.4622C79.652 69.4622 79.5421 62.0663 79.652 59.4846C79.7039 58.2593 86.3896 58.0887 86.454 59.8217L86.292 69.4602H93.0358C94.0887 69.4602 94.0494 75.747 93.0358 75.695H86.0843C86.1155 80.0078 85.5527 84.9944 86.0843 89.3072C86.346 91.4333 88.0844 92.7711 90.3857 92.5026C92.07 92.307 96.5521 88.577 96.7348 85.5833C97.2954 76.3254 94.0264 52.7587 106.135 52.0306C113.072 51.6124 115.311 55.2259 115.431 61.8146C115.581 69.897 104.166 73.9787 104.16 74.2222C104.126 75.2581 104.077 75.718 104.137 76.3193C106.926 73.8081 113.601 68.1974 119.666 70.4317H119.66ZM109.678 60.0609C109.525 58.848 108.82 57.3563 107.36 57.6143C103.616 58.9 104.102 64.9748 104.164 68.5552C105.25 68.4948 110.141 63.6994 109.68 60.0609H109.678ZM55.7862 81.9322H62.5299C64.4344 81.8843 65.8634 81.0002 66.3597 80.5737C68.6277 78.6202 67.0513 74.3324 64.4075 74.0244C59.1528 73.413 56.914 77.5757 55.7862 81.9322Z" fill="#252626"/>
<path d="M24.6053 75.2831C29.6273 67.6065 42.3485 67.8748 46.1097 76.5315C52.3489 90.8904 37.8063 107.34 24.4974 96.4846C24.4974 96.4846 24.7736 97.8326 24.4142 98.8417C24.2232 99.3783 17.7702 99.2452 17.6622 98.2883C16.5053 87.9944 18.063 55.665 18.063 55.665C18.2499 54.76 21.2801 54.8702 22.0383 54.9056C22.8774 54.9452 24.9418 54.9056 25.189 55.898L24.6053 75.2811V75.2831ZM37.8583 77.4863C34.8487 74.193 30.2214 75.3685 27.3532 78.2665C22.8068 82.858 23.7932 94.013 31.2909 94.3563C40.1614 94.762 43.0422 83.1574 37.856 77.4863H37.8583Z" fill="#252626"/>
</g>
<defs>
<clipPath id="clip0_16_13487">
<rect width="170" height="100" fill="white"/>
</clipPath>
</defs>
</svg>
