<svg width="33" height="32" viewBox="0 0 33 32" fill="none" xmlns="http://www.w3.org/2000/svg">
<g clip-path="url(#clip0_16_14102)">
<path d="M32.55 16C32.55 7.16344 25.3866 0 16.55 0C7.71349 0 0.550049 7.16344 0.550049 16C0.550049 23.9859 6.40099 30.6053 14.05 31.8056V20.625H9.98755V16H14.05V12.475C14.05 8.465 16.4388 6.25 20.0935 6.25C21.8435 6.25 23.675 6.5625 23.675 6.5625V10.5H21.6576C19.67 10.5 19.05 11.7334 19.05 13V16H23.4875L22.7782 20.625H19.05V31.8056C26.6991 30.6053 32.55 23.9859 32.55 16Z" fill="#F9FAFA"/>
</g>
<defs>
<clipPath id="clip0_16_14102">
<rect width="32" height="32" fill="white" transform="translate(0.550049)"/>
</clipPath>
</defs>
</svg>
