<svg width="33" height="32" viewBox="0 0 33 32" fill="none" xmlns="http://www.w3.org/2000/svg">
<g clip-path="url(#clip0_16_14106)">
<path fill-rule="evenodd" clip-rule="evenodd" d="M16.27 0C7.43322 0 0.27002 7.1744 0.27002 16.0272C0.27002 23.1072 4.85402 29.1152 11.2124 31.2336C12.0124 31.3808 12.3036 30.8864 12.3036 30.4608C12.3036 30.0816 12.2908 29.072 12.2828 27.736C7.83162 28.704 6.89242 25.5872 6.89242 25.5872C6.16602 23.7344 5.11642 23.2416 5.11642 23.2416C3.66362 22.2496 5.22682 22.2688 5.22682 22.2688C6.83162 22.3808 7.67642 23.92 7.67642 23.92C9.10362 26.368 11.422 25.6608 12.3324 25.2512C12.4796 24.216 12.8924 23.5104 13.35 23.1104C9.79802 22.7056 6.06202 21.3296 6.06202 15.1888C6.06202 13.44 6.68602 12.008 7.70842 10.888C7.54362 10.4832 6.99482 8.8528 7.86522 6.648C7.86522 6.648 9.20922 6.216 12.2652 8.2896C13.5704 7.93362 14.9171 7.75231 16.27 7.7504C17.63 7.7568 18.998 7.9344 20.2764 8.2896C23.3308 6.216 24.6716 6.6464 24.6716 6.6464C25.5452 8.8528 24.9948 10.4832 24.8316 10.888C25.8556 12.008 26.4764 13.44 26.4764 15.1888C26.4764 21.3456 22.734 22.7008 19.1708 23.0976C19.7452 23.592 20.2556 24.5696 20.2556 26.0656C20.2556 28.2064 20.2364 29.936 20.2364 30.4608C20.2364 30.8896 20.5244 31.3888 21.3372 31.232C24.5233 30.1634 27.293 28.1205 29.2548 25.3921C31.2166 22.6637 32.2714 19.3877 32.27 16.0272C32.27 7.1744 25.1052 0 16.27 0Z" fill="#F9FAFA"/>
</g>
<defs>
<clipPath id="clip0_16_14106">
<rect width="32" height="32" fill="white" transform="translate(0.27002)"/>
</clipPath>
</defs>
</svg>
