<svg width="33" height="32" viewBox="0 0 33 32" fill="none" xmlns="http://www.w3.org/2000/svg">
<g clip-path="url(#clip0_16_14104)">
<path d="M16.9102 2.88125C21.1852 2.88125 21.6914 2.9 23.3727 2.975C24.9352 3.04375 25.7789 3.30625 26.3414 3.525C27.0852 3.8125 27.6227 4.1625 28.1789 4.71875C28.7414 5.28125 29.0852 5.8125 29.3727 6.55625C29.5914 7.11875 29.8539 7.96875 29.9227 9.525C29.9977 11.2125 30.0164 11.7188 30.0164 15.9875C30.0164 20.2625 29.9977 20.7688 29.9227 22.45C29.8539 24.0125 29.5914 24.8563 29.3727 25.4188C29.0852 26.1625 28.7352 26.7 28.1789 27.2563C27.6164 27.8188 27.0852 28.1625 26.3414 28.45C25.7789 28.6688 24.9289 28.9313 23.3727 29C21.6852 29.075 21.1789 29.0938 16.9102 29.0938C12.6352 29.0938 12.1289 29.075 10.4477 29C8.88516 28.9313 8.04141 28.6688 7.47891 28.45C6.73516 28.1625 6.19766 27.8125 5.64141 27.2563C5.07891 26.6938 4.73516 26.1625 4.44766 25.4188C4.22891 24.8563 3.96641 24.0063 3.89766 22.45C3.82266 20.7625 3.80391 20.2563 3.80391 15.9875C3.80391 11.7125 3.82266 11.2063 3.89766 9.525C3.96641 7.9625 4.22891 7.11875 4.44766 6.55625C4.73516 5.8125 5.08516 5.275 5.64141 4.71875C6.20391 4.15625 6.73516 3.8125 7.47891 3.525C8.04141 3.30625 8.89141 3.04375 10.4477 2.975C12.1289 2.9 12.6352 2.88125 16.9102 2.88125ZM16.9102 0C12.5664 0 12.0227 0.01875 10.3164 0.09375C8.61641 0.16875 7.44766 0.44375 6.43516 0.8375C5.37891 1.25 4.48516 1.79375 3.59766 2.6875C2.70391 3.575 2.16016 4.46875 1.74766 5.51875C1.35391 6.5375 1.07891 7.7 1.00391 9.4C0.928906 11.1125 0.910156 11.6562 0.910156 16C0.910156 20.3438 0.928906 20.8875 1.00391 22.5938C1.07891 24.2938 1.35391 25.4625 1.74766 26.475C2.16016 27.5313 2.70391 28.425 3.59766 29.3125C4.48516 30.2 5.37891 30.75 6.42891 31.1562C7.44766 31.55 8.61016 31.825 10.3102 31.9C12.0164 31.975 12.5602 31.9937 16.9039 31.9937C21.2477 31.9937 21.7914 31.975 23.4977 31.9C25.1977 31.825 26.3664 31.55 27.3789 31.1562C28.4289 30.75 29.3227 30.2 30.2102 29.3125C31.0977 28.425 31.6477 27.5313 32.0539 26.4813C32.4477 25.4625 32.7227 24.3 32.7977 22.6C32.8727 20.8938 32.8914 20.35 32.8914 16.0063C32.8914 11.6625 32.8727 11.1188 32.7977 9.4125C32.7227 7.7125 32.4477 6.54375 32.0539 5.53125C31.6602 4.46875 31.1164 3.575 30.2227 2.6875C29.3352 1.8 28.4414 1.25 27.3914 0.84375C26.3727 0.45 25.2102 0.175 23.5102 0.1C21.7977 0.01875 21.2539 0 16.9102 0Z" fill="#F9FAFA"/>
<path d="M16.9102 7.78125C12.3727 7.78125 8.69141 11.4625 8.69141 16C8.69141 20.5375 12.3727 24.2188 16.9102 24.2188C21.4477 24.2188 25.1289 20.5375 25.1289 16C25.1289 11.4625 21.4477 7.78125 16.9102 7.78125ZM16.9102 21.3312C13.9664 21.3312 11.5789 18.9438 11.5789 16C11.5789 13.0563 13.9664 10.6687 16.9102 10.6687C19.8539 10.6687 22.2414 13.0563 22.2414 16C22.2414 18.9438 19.8539 21.3312 16.9102 21.3312Z" fill="#F9FAFA"/>
<path d="M27.3727 7.4562C27.3727 8.5187 26.5102 9.37495 25.4539 9.37495C24.3914 9.37495 23.5352 8.51245 23.5352 7.4562C23.5352 6.3937 24.3977 5.53745 25.4539 5.53745C26.5102 5.53745 27.3727 6.39995 27.3727 7.4562Z" fill="#F9FAFA"/>
</g>
<defs>
<clipPath id="clip0_16_14104">
<rect width="32" height="32" fill="white" transform="translate(0.910156)"/>
</clipPath>
</defs>
</svg>
