<svg width="33" height="32" viewBox="0 0 33 32" fill="none" xmlns="http://www.w3.org/2000/svg">
<g clip-path="url(#clip0_16_14107)">
<path d="M16.45 0C7.61245 0 0.449951 7.1625 0.449951 16C0.449951 22.7812 4.6687 28.5688 10.6187 30.9C10.4812 29.6313 10.35 27.6938 10.675 26.3125C10.9687 25.0625 12.55 18.3625 12.55 18.3625C12.55 18.3625 12.0687 17.4063 12.0687 15.9875C12.0687 13.7625 13.3562 12.1 14.9625 12.1C16.325 12.1 16.9875 13.125 16.9875 14.3562C16.9875 15.7312 16.1125 17.7812 15.6625 19.6812C15.2875 21.275 16.4625 22.575 18.0312 22.575C20.875 22.575 23.0625 19.575 23.0625 15.25C23.0625 11.4188 20.3125 8.7375 16.3812 8.7375C11.8312 8.7375 9.1562 12.15 9.1562 15.6812C9.1562 17.0562 9.68745 18.5312 10.35 19.3312C10.4812 19.4875 10.5 19.6313 10.4625 19.7875C10.3437 20.2938 10.0687 21.3813 10.0187 21.6C9.94995 21.8938 9.78745 21.9563 9.4812 21.8125C7.4812 20.8813 6.2312 17.9625 6.2312 15.6125C6.2312 10.5625 9.89995 5.93125 16.8 5.93125C22.35 5.93125 26.6625 9.8875 26.6625 15.175C26.6625 20.6875 23.1875 25.125 18.3625 25.125C16.7437 25.125 15.2187 24.2813 14.6937 23.2875C14.6937 23.2875 13.8937 26.3438 13.7 27.0938C13.3375 28.4813 12.3625 30.225 11.7125 31.2875C13.2125 31.75 14.8 32 16.45 32C25.2875 32 32.45 24.8375 32.45 16C32.45 7.1625 25.2875 0 16.45 0Z" fill="#F9FAFA"/>
</g>
<defs>
<clipPath id="clip0_16_14107">
<rect width="32" height="32" fill="white" transform="translate(0.449951)"/>
</clipPath>
</defs>
</svg>
