<svg width="33" height="32" viewBox="0 0 33 32" fill="none" xmlns="http://www.w3.org/2000/svg">
<g clip-path="url(#clip0_16_14105)">
<path d="M31.7713 9.60006C31.7713 9.60006 31.4588 7.39381 30.4963 6.42506C29.2776 5.15006 27.9151 5.1438 27.2901 5.0688C22.8151 4.7438 16.0963 4.7438 16.0963 4.7438H16.0838C16.0838 4.7438 9.36509 4.7438 4.89009 5.0688C4.26509 5.1438 2.90259 5.15006 1.68384 6.42506C0.721338 7.39381 0.415088 9.60006 0.415088 9.60006C0.415088 9.60006 0.0900879 12.1938 0.0900879 14.7813V17.2063C0.0900879 19.7938 0.408838 22.3876 0.408838 22.3876C0.408838 22.3876 0.721338 24.5938 1.67759 25.5626C2.89634 26.8376 4.49634 26.7938 5.20884 26.9313C7.77134 27.1751 16.0901 27.2501 16.0901 27.2501C16.0901 27.2501 22.8151 27.2376 27.2901 26.9188C27.9151 26.8438 29.2776 26.8376 30.4963 25.5626C31.4588 24.5938 31.7713 22.3876 31.7713 22.3876C31.7713 22.3876 32.0901 19.8001 32.0901 17.2063V14.7813C32.0901 12.1938 31.7713 9.60006 31.7713 9.60006ZM12.7838 20.1501V11.1563L21.4276 15.6688L12.7838 20.1501Z" fill="#F9FAFA"/>
</g>
<defs>
<clipPath id="clip0_16_14105">
<rect width="32" height="32" fill="white" transform="translate(0.0900879)"/>
</clipPath>
</defs>
</svg>
